# xmcd
#
# Track frame offsets: 
#        150
#        18833
#        43295
#        65878
#        85338
#        106111
#        124966
#        167803
#        202818
#        227115
#        247147
#
# Disc length: 3704 seconds
#
# Revision: 1
# Processed by: cddbd v1.5.1PL2 Copyright (c) Steve Scherf et al.
# Submitted via: ExactAudioCopy v0.95a4
#
DISCID=980e760b
DTITLE=Rata Blanca - El Camino Del Fuego
DYEAR=2001
DGENRE=Heavy Metal
TTITLE0=El Amo Del Camino
TTITLE1=Volviendo A Casa
TTITLE2=La Cancion Del Guerrero
TTITLE3=Abeja Reina
TTITLE4=Lluvia Purpura
TTITLE5=Senora Furia
TTITLE6=Sinfonia Fantastica
TTITLE7=Cuando La Luz Oscurece
TTITLE8=En Nombre De Dios?
TTITLE9=Caballo Salvaje
TTITLE10=Mujer Amante (Version Acustico)
EXTD=YEAR: 2001
EXTT0=
EXTT1=
EXTT2=
EXTT3=
EXTT4=
EXTT5=
EXTT6=
EXTT7=
EXTT8=
EXTT9=
EXTT10=
PLAYORDER=
